<?xml version="1.0" encoding="UTF-8"?>
<svg id="_Слой_2" data-name="Слой_2" xmlns="http://www.w3.org/2000/svg" viewBox="0 0 67.45 60.72">
  <defs>
    <style>
      .cls-1 {
        fill: none;
      }

      .cls-2 {
        font-size: 48px;
      }

      .cls-2, .cls-3 {
        fill: #1d1d1b;
        font-family: AvenirNext-Regular, 'Avenir Next';
      }

      .cls-3 {
        font-size: 8px;
      }
    </style>
  </defs>
  <g id="_Слой_1-2" data-name="Слой_1">
    <text class="cls-2" transform="translate(0 40.99)"><tspan x="0" y="0">Q</tspan></text>
  </g>
  <g id="_Слой_3" data-name="Слой_3">
    <path d="M66.22,12.19l1.06-1.41c.35-.33.09-.38-.28-.7h0c-.32-.28-.64-.62-.92-.3l-1.31,1.67-.53-.62c-.79-.61-1.23-.82-1.95.15-.02.03-.22.32-.24.35l-16.75,22.73c-.08.11-.13.23-.15.37l-.84,5.43c-.1.65.53,1.15,1.09.89l4.28-2.01c.12-.06.46-.47.54-.58l15.87-21.91c.72-.97,1.8-1.51.99-2.42-.02-.03-.05-.05-.07-.08l-.63-.67c-.31-.33-.49-.59-.16-.9ZM49.08,37.43l-3.13,1.3.52-3.64,16.65-22.26,2.05,2.18-16.08,22.43ZM53.27,19.71l6.6-8.97.74,1.2-7.03,9.97-.31-2.2Z"/>
    <path d="M41.33,6.48l-3.26,2.41c-.44.36-.55,1.04-.24,1.52l8.07,12.37,3.7,1.59c.5.21,1.08-.08,1.28-.64.03-.07.04-.14.06-.22.02-.07.03-.15.03-.22l-.84-4.33-7.92-12.12c-.22-.49-.69-.44-.89-.36M49.35,19.63l.62,3.76-3.44-1.48-6.02-9.25,2.69-2.19,6.15,9.16ZM42.71,9.59l-2.78,2.26-1.34-2.07,2.99-2.14,1.13,1.95Z"/>
    <path class="cls-1" d="M48.9,55.95l.27-12,12,.27-.27,12-12-.27Z"/>
  </g>
  <g id="_Слой_2-2" data-name="Слой_2">
    <text class="cls-3" transform="translate(41.73 36.29) rotate(-53.43)"><tspan x="0" y="0">out</tspan></text>
  </g>
</svg>